<?xml version="1.0" standalone="no"?>
<!DOCTYPE svg PUBLIC "-//W3C//DTD SVG 20010904//EN"
 "http://www.w3.org/TR/2001/REC-SVG-20010904/DTD/svg10.dtd">
<svg version="1.0" xmlns="http://www.w3.org/2000/svg"
 width="1139.000000pt" height="911.000000pt" viewBox="0 0 1139.000000 911.000000"
 preserveAspectRatio="xMidYMid meet">
<metadata>
Created by potrace 1.16, written by Peter Selinger 2001-2019
</metadata>
<g transform="translate(0.000000,911.000000) scale(0.100000,-0.100000)"
fill="#000000" stroke="none">
<path d="M4235 7988 c-2326 -617 -4232 -1123 -4234 -1125 -2 -1 -2 -5 0 -8 3
-2 1922 504 4264 1125 2343 621 4247 1129 4230 1129 -16 0 -1933 -505 -4260
-1121z"/>
<path d="M8019 4558 c-664 -2504 -1205 -4555 -1203 -4557 2 -2 6 -2 8 0 2 2
545 2045 1205 4539 661 2494 1204 4543 1207 4553 3 9 2 17 -3 17 -4 0 -551
-2049 -1214 -4552z"/>
<path d="M0 6775 c0 -13 6768 -6781 6774 -6774 3 3 -1520 1530 -3384 3394
-1865 1865 -3390 3385 -3390 3380z"/>
</g>
</svg>
